<?xml version="1.0" encoding="UTF-8" standalone="no"?>
<!-- Created with Inkscape (http://www.inkscape.org/) -->

<svg
   xmlns:dc="http://purl.org/dc/elements/1.1/"
   xmlns:cc="http://creativecommons.org/ns#"
   xmlns:rdf="http://www.w3.org/1999/02/22-rdf-syntax-ns#"
   xmlns:svg="http://www.w3.org/2000/svg"
   xmlns="http://www.w3.org/2000/svg"
   xmlns:sodipodi="http://sodipodi.sourceforge.net/DTD/sodipodi-0.dtd"
   xmlns:inkscape="http://www.inkscape.org/namespaces/inkscape"
   width="400"
   height="400"
   viewBox="0 0 400 400.00001"
   id="svg7021"
   version="1.1"
   inkscape:version="0.91 r13725"
   sodipodi:docname="review-star-17px-lines-only-no-wordsa.svg">
  <defs
     id="defs7023" />
  <sodipodi:namedview
     id="base"
     pagecolor="#ffffff"
     bordercolor="#666666"
     borderopacity="1.0"
     inkscape:pageopacity="0.0"
     inkscape:pageshadow="2"
     inkscape:zoom="0.5"
     inkscape:cx="294.72726"
     inkscape:cy="198.07614"
     inkscape:document-units="px"
     inkscape:current-layer="layer1"
     showgrid="false"
     units="px"
     fit-margin-top="0"
     fit-margin-left="0"
     fit-margin-right="0"
     fit-margin-bottom="0"
     inkscape:window-width="1440"
     inkscape:window-height="807"
     inkscape:window-x="0"
     inkscape:window-y="1"
     inkscape:window-maximized="1" />
  <metadata
     id="metadata7026">
    <rdf:RDF>
      <cc:Work
         rdf:about="">
        <dc:format>image/svg+xml</dc:format>
        <dc:type
           rdf:resource="http://purl.org/dc/dcmitype/StillImage" />
        <dc:title></dc:title>
      </cc:Work>
    </rdf:RDF>
  </metadata>
  <g
     inkscape:label="Layer 1"
     inkscape:groupmode="layer"
     id="layer1"
     transform="translate(-184.96428,-361.68362)">
    <path
       style="opacity:1;fill:none;fill-opacity:1;fill-rule:nonzero;stroke:#ffffff;stroke-width:17;stroke-linecap:round;stroke-linejoin:round;stroke-miterlimit:4;stroke-dasharray:none;stroke-dashoffset:2.19999981;stroke-opacity:1"
       d="m 353.82254,509.87475 c 0.35634,0.27112 4.63936,2.98692 4.96901,3.28004 6.14898,5.46956 7.56869,14.63872 3.18546,21.75322 -4.61782,7.49565 -14.16999,10.2639 -22.08051,6.39948 -7.91051,-3.86442 -11.59793,-13.10099 -8.52344,-21.35098 3.07449,-8.24999 11.90744,-12.82052 20.41777,-10.56593 l 32.92832,-100.72299 24.56548,76.01377"
       id="path28167"
       inkscape:connector-curvature="0"
       sodipodi:nodetypes="cssssccc" />
    <path
       sodipodi:nodetypes="cssssccc"
       inkscape:connector-curvature="0"
       id="path28169"
       d="m 310.96699,586.4434 c 0.36851,-0.25473 4.27787,-3.48468 4.65856,-3.70756 7.10654,-4.15051 16.26398,-2.65776 21.66939,3.71458 5.69525,6.71414 5.36608,16.65403 -0.76043,22.97672 -6.1265,6.3227 -16.05093,6.9656 -22.9416,1.48527 -6.89069,-5.48079 -8.49769,-15.29518 -3.71552,-22.68735 l -85.55424,-62.52975 79.88427,0.20837"
       style="opacity:1;fill:none;fill-opacity:1;fill-rule:nonzero;stroke:#ffffff;stroke-width:17;stroke-linecap:round;stroke-linejoin:round;stroke-miterlimit:4;stroke-dasharray:none;stroke-dashoffset:2.19999981;stroke-opacity:1" />
    <path
       style="opacity:1;fill:none;fill-opacity:1;fill-rule:nonzero;stroke:#ffffff;stroke-width:17;stroke-linecap:round;stroke-linejoin:round;stroke-miterlimit:4;stroke-dasharray:none;stroke-dashoffset:2.19999981;stroke-opacity:1"
       d="m 370.73598,650.31654 c -0.13251,-0.4275 -2.03826,-5.12727 -2.13613,-5.55758 -1.82287,-8.02524 2.35339,-16.31081 10.05554,-19.55059 8.11513,-3.41397 17.4964,-0.11238 21.68578,7.63097 4.18937,7.74335 1.81959,17.40181 -5.47845,22.32633 -7.29852,4.92593 -17.14195,3.50856 -22.75572,-3.27209 l -85.35197,62.80556 24.20775,-76.1285"
       id="path28171"
       inkscape:connector-curvature="0"
       sodipodi:nodetypes="cssssccc" />
    <path
       style="opacity:1;fill:none;fill-opacity:1;fill-rule:nonzero;stroke:#ffffff;stroke-width:17;stroke-linecap:round;stroke-linejoin:round;stroke-miterlimit:4;stroke-dasharray:none;stroke-dashoffset:2.19999981;stroke-opacity:1"
       d="m 449.95301,614.07259 c -0.44764,-0.014 -5.5117,0.26315 -5.94997,0.21633 -8.18257,-0.88124 -14.66306,-7.5214 -15.22729,-15.85848 -0.5942,-8.78379 5.57397,-16.5852 14.25802,-18.03348 8.68406,-1.44781 17.05017,3.92903 19.33894,12.43047 2.28878,8.50191 -2.2471,17.35219 -10.48491,20.45945 l 31.69262,101.11867 -64.1452,-47.61197"
       id="path28173"
       inkscape:connector-curvature="0"
       sodipodi:nodetypes="cssssccc" />
    <path
       sodipodi:nodetypes="cssssccc"
       inkscape:connector-curvature="0"
       id="path28175"
       d="m 439.80289,527.1876 c -0.1475,0.42235 -1.4052,5.33564 -1.58173,5.73974 -3.29971,7.53919 -11.58108,11.72482 -19.70182,9.75726 -8.5567,-2.07339 -14.14331,-10.30137 -12.91464,-19.01913 1.22867,-8.71777 8.87181,-15.08073 17.66825,-14.70848 8.79689,0.37179 15.8744,7.35845 16.36372,16.14739 l 105.96874,0.16389 -64.68978,46.86934"
       style="opacity:1;fill:none;fill-opacity:1;fill-rule:nonzero;stroke:#ffffff;stroke-width:17;stroke-linecap:round;stroke-linejoin:round;stroke-miterlimit:4;stroke-dasharray:none;stroke-dashoffset:2.19999981;stroke-opacity:1" />
  </g>
</svg>
